<?xml version="1.0" encoding="utf-8"?>
<!-- Generator: Adobe Illustrator 27.6.1, SVG Export Plug-In . SVG Version: 6.00 Build 0)  -->
<svg version="1.1" id="Layer_1" xmlns="http://www.w3.org/2000/svg" xmlns:xlink="http://www.w3.org/1999/xlink" x="0px" y="0px"
	 viewBox="0 0 1125 300" style="enable-background:new 0 0 1125 300;" xml:space="preserve">
<style type="text/css">
	.st0{fill:#00ADEE;}
	.st1{fill:#00ABEB;}
</style>
<g>
	<g>
		<path class="st0" d="M691.7,182.9h-13.1l-7.2-17.1H638l-7.3,17.1h-12.7l31.1-71.2h11.5L691.7,182.9z M654.7,126.6l-12.1,28.3h24.3
			L654.7,126.6z"/>
		<path class="st0" d="M716.9,112.3v70.7h-12.3v-70.7H716.9z"/>
		<g>
			<path class="st0" d="M188.3,181.3c-3.4,1.8-7.6,2.8-12.8,2.8c-4,0-7.6-0.7-11-2.2c-3.4-1.4-6.3-3.4-8.8-6
				c-2.5-2.5-4.4-5.4-5.8-8.8c-1.4-3.3-2.1-6.9-2.1-10.8c0-3.8,0.7-7.4,2.1-10.8c1.4-3.4,3.3-6.3,5.8-8.9c2.5-2.6,5.4-4.6,8.8-6.1
				c3.4-1.5,7.1-2.2,11.1-2.2c5,0,9.2,0.8,12.6,2.5c3.3,1.7,6.2,3.9,8.7,6.7l-7.6,8.2c-1.9-2-3.9-3.5-6-4.8
				c-2.1-1.2-4.7-1.9-7.8-1.9c-2.2,0-4.3,0.5-6.2,1.4c-1.9,0.9-3.5,2.1-4.8,3.7c-1.3,1.5-2.4,3.3-3.2,5.4c-0.8,2.1-1.2,4.3-1.2,6.6
				c0,2.4,0.4,4.7,1.2,6.8c0.8,2.1,1.9,3.9,3.3,5.5c1.4,1.5,3.1,2.8,5,3.7c2,0.9,4.1,1.4,6.5,1.4c2.9,0,5.4-0.6,7.6-1.9
				c2.2-1.2,4.3-2.8,6.2-4.8l7.4,7.3C194.7,177.1,191.7,179.5,188.3,181.3z"/>
			<path class="st0" d="M254.6,167.1c-1.4,3.4-3.4,6.3-6,8.8c-2.5,2.5-5.5,4.5-9,6c-3.5,1.5-7.3,2.2-11.4,2.2c-4,0-7.8-0.7-11.3-2.2
				c-3.5-1.4-6.5-3.4-9-6c-2.5-2.5-4.5-5.4-5.9-8.8c-1.4-3.3-2.1-6.9-2.1-10.8c0-3.8,0.7-7.5,2.2-10.9c1.4-3.4,3.4-6.4,6-8.9
				s5.5-4.5,9-6c3.5-1.5,7.2-2.2,11.4-2.2c4.1,0,7.9,0.7,11.4,2.2c3.5,1.4,6.5,3.4,9,6c2.5,2.5,4.5,5.5,5.9,8.8
				c1.4,3.4,2.1,7,2.1,10.8C256.7,160.1,256,163.7,254.6,167.1z M243.2,149.8c-0.8-2.1-1.9-3.9-3.4-5.5c-1.4-1.6-3.1-2.8-5.1-3.7
				c-2-0.9-4.2-1.4-6.6-1.4c-2.4,0-4.6,0.5-6.6,1.4c-2,0.9-3.7,2.1-5.1,3.7c-1.4,1.5-2.5,3.3-3.2,5.4c-0.7,2.1-1.1,4.3-1.1,6.6
				c0,2.4,0.4,4.6,1.2,6.7c0.8,2.1,1.9,4,3.4,5.5c1.4,1.5,3.1,2.8,5.1,3.7c2,0.9,4.1,1.4,6.5,1.4c2.5,0,4.7-0.5,6.7-1.4
				c2-0.9,3.7-2.1,5.1-3.7c1.4-1.5,2.5-3.3,3.2-5.4c0.7-2.1,1.1-4.3,1.1-6.6C244.4,154.1,244,151.9,243.2,149.8z"/>
			<path class="st0" d="M317.1,131.1c2.9-1.7,6.4-2.6,10.5-2.6c5.9,0,10.4,1.8,13.7,5.3c3.3,3.5,4.9,8.6,4.9,15.1v34H334v-30.2
				c0-4.2-0.9-7.5-2.8-9.7c-1.9-2.2-4.5-3.3-7.9-3.3c-3.3,0-6.1,1.1-8.2,3.4c-2.1,2.3-3.2,5.5-3.2,9.8v30h-12.3v-30.3
				c0-4.2-0.9-7.4-2.8-9.6c-1.9-2.2-4.5-3.3-7.9-3.3c-3.4,0-6.2,1.2-8.2,3.5c-2.1,2.4-3.1,5.6-3.1,9.8v29.9h-12.3v-53.3h12.3v8.2
				c0.9-1.2,1.8-2.4,2.8-3.5c1-1.1,2.2-2.1,3.5-3s2.8-1.6,4.4-2.1c1.6-0.5,3.5-0.8,5.5-0.8c3.8,0,7.1,0.9,9.7,2.6s4.7,4,6.1,6.9
				C311.7,135.1,314.2,132.8,317.1,131.1z"/>
			<path class="st0" d="M410,168.1c-1.4,3.4-3.2,6.3-5.6,8.7c-2.3,2.4-5,4.2-8,5.4c-3,1.2-6.1,1.8-9.2,1.8c-4.4,0-8-0.9-10.9-2.8
				c-2.9-1.9-5.3-4.1-7.2-6.6l0.1,24.4H357v-69.4h12.3v8.9c1.9-2.8,4.4-5.2,7.3-7.1c2.9-1.9,6.5-2.9,10.8-2.9c3.2,0,6.2,0.6,9.2,1.8
				c3,1.2,5.6,3,7.9,5.4c2.3,2.4,4.2,5.3,5.6,8.7c1.4,3.4,2.1,7.4,2.1,11.8S411.4,164.6,410,168.1z M398.6,149.1
				c-0.8-2.1-1.9-3.9-3.3-5.4c-1.4-1.5-3-2.6-4.8-3.4c-1.9-0.8-3.8-1.2-5.9-1.2c-2.1,0-4.1,0.4-6,1.2c-1.9,0.8-3.5,2-4.9,3.5
				c-1.4,1.5-2.5,3.3-3.4,5.4c-0.8,2.1-1.3,4.4-1.3,7.1s0.4,5,1.3,7.1c0.8,2.1,2,3.9,3.4,5.4c1.4,1.5,3.1,2.7,4.9,3.5
				c1.9,0.8,3.9,1.2,6,1.2c2.1,0,4.1-0.4,5.9-1.2c1.8-0.8,3.5-2,4.8-3.4c1.4-1.5,2.5-3.3,3.3-5.4c0.8-2.1,1.2-4.5,1.2-7.1
				S399.4,151.3,398.6,149.1z"/>
			<path class="st0" d="M434.2,182.9h-12.3v-53.3h12.3v10.7c1.7-4,4.1-5.9,7.2-8.3c3.1-2.4,7-3.5,11.7-3.3v12.9h-0.7
				c-2.7,0-5.1,0.4-7.4,1.3c-2.2,0.9-4.1,2.2-5.8,3.9c-1.6,1.8-2.9,4-3.7,6.6c-0.9,2.7-1.3,5.7-1.3,9.2V182.9z"/>
			<path class="st0" d="M476.3,170.6c2.8,2.3,6.1,3.5,10.1,3.5c3,0,5.7-0.5,7.9-1.6c2.2-1.1,4.4-2.7,6.6-4.7l7.2,6.4
				c-2.6,3-5.6,5.5-9.1,7.3c-3.5,1.8-7.8,2.7-12.7,2.7c-3.8,0-7.4-0.7-10.8-2c-3.3-1.3-6.2-3.2-8.7-5.7c-2.5-2.4-4.4-5.3-5.8-8.7
				c-1.4-3.4-2.1-7.2-2.1-11.4c0-3.8,0.6-7.4,1.9-10.8c1.3-3.4,3.1-6.3,5.4-8.8c2.3-2.5,5.1-4.5,8.2-6c3.2-1.5,6.7-2.2,10.5-2.2
				c4.2,0,8,0.8,11.2,2.3c3.2,1.5,5.9,3.6,8,6.3c2.1,2.6,3.7,5.7,4.8,9.2c1.1,3.5,1.6,7.2,1.6,11c0,0.5,0,1.1,0,1.6
				c0,0.5-0.1,1.1-0.2,1.7h-39.2C471.8,165,473.6,168.3,476.3,170.6z M498.3,152.5c-0.2-2-0.6-3.8-1.3-5.5c-0.7-1.7-1.6-3.2-2.7-4.4
				c-1.1-1.2-2.5-2.2-4.1-3c-1.6-0.7-3.4-1.1-5.4-1.1c-3.8,0-6.9,1.3-9.3,3.9c-2.5,2.6-4,6-4.5,10.1H498.3z"/>
			<path class="st0" d="M559.3,174.5c-1,2.1-2.4,3.8-4.2,5.2c-1.8,1.4-3.9,2.4-6.3,3.1c-2.4,0.7-5,1.1-7.8,1.1
				c-3.8,0-7.7-0.7-11.7-2c-3.9-1.3-7.6-3.3-11-6l5.5-8.3c2.9,2.2,5.8,3.8,8.8,4.9c3,1.1,5.9,1.7,8.6,1.7c2.6,0,4.7-0.5,6.1-1.6
				c1.4-1,2.2-2.4,2.2-4.2v-0.2c0-1-0.3-1.9-1-2.6c-0.6-0.7-1.5-1.4-2.6-2c-1.1-0.6-2.4-1.1-3.8-1.5c-1.4-0.4-2.9-0.9-4.5-1.4
				c-2-0.6-3.9-1.3-5.9-2c-2-0.7-3.8-1.7-5.4-2.9c-1.6-1.2-2.9-2.6-3.9-4.3s-1.5-3.9-1.5-6.4v-0.2c0-2.5,0.5-4.7,1.5-6.8
				c1-2,2.3-3.7,4-5.1c1.7-1.4,3.7-2.5,6.1-3.2c2.3-0.7,4.8-1.1,7.4-1.1c3.4,0,6.8,0.5,10.2,1.6c3.4,1.1,6.6,2.6,9.4,4.4l-4.8,8.7
				c-2.6-1.5-5.1-2.8-7.8-3.7c-2.6-0.9-5-1.4-7.3-1.4c-2.4,0-4.2,0.5-5.5,1.5c-1.3,1-2,2.3-2,3.8v0.2c0,0.9,0.3,1.8,1,2.5
				c0.7,0.7,1.6,1.3,2.7,1.9c1.1,0.6,2.4,1.1,3.8,1.6c1.4,0.5,2.9,1,4.5,1.5c2,0.6,3.9,1.3,5.9,2.1c2,0.8,3.7,1.8,5.3,3
				c1.6,1.2,2.9,2.6,3.9,4.3c1,1.7,1.5,3.7,1.5,6.2v0.2C560.8,170,560.3,172.4,559.3,174.5z"/>
			<path class="st0" d="M608.8,174.5c-1,2.1-2.4,3.8-4.2,5.2c-1.8,1.4-3.9,2.4-6.3,3.1c-2.4,0.7-5,1.1-7.8,1.1
				c-3.8,0-7.7-0.7-11.7-2c-3.9-1.3-7.6-3.3-11-6l5.5-8.3c2.9,2.2,5.8,3.8,8.8,4.9c3,1.1,5.9,1.7,8.6,1.7c2.6,0,4.7-0.5,6.1-1.6
				c1.4-1,2.2-2.4,2.2-4.2v-0.2c0-1-0.3-1.9-1-2.6c-0.6-0.7-1.5-1.4-2.6-2c-1.1-0.6-2.4-1.1-3.8-1.5c-1.4-0.4-2.9-0.9-4.5-1.4
				c-2-0.6-3.9-1.3-5.9-2s-3.8-1.7-5.3-2.9c-1.6-1.2-2.9-2.6-3.9-4.3c-1-1.7-1.5-3.9-1.5-6.4v-0.2c0-2.5,0.5-4.7,1.5-6.8
				c1-2,2.3-3.7,4-5.1c1.7-1.4,3.7-2.5,6.1-3.2c2.3-0.7,4.8-1.1,7.4-1.1c3.4,0,6.8,0.5,10.2,1.6c3.4,1.1,6.6,2.6,9.4,4.4l-4.8,8.7
				c-2.6-1.5-5.1-2.8-7.8-3.7c-2.6-0.9-5-1.4-7.3-1.4c-2.4,0-4.2,0.5-5.5,1.5c-1.3,1-2,2.3-2,3.8v0.2c0,0.9,0.3,1.8,1,2.5
				c0.7,0.7,1.6,1.3,2.7,1.9c1.1,0.6,2.4,1.1,3.8,1.6c1.4,0.5,2.9,1,4.5,1.5c2,0.6,3.9,1.3,5.9,2.1c2,0.8,3.7,1.8,5.3,3
				c1.6,1.2,2.9,2.6,3.9,4.3c1,1.7,1.5,3.7,1.5,6.2v0.2C610.3,170,609.8,172.4,608.8,174.5z"/>
		</g>
	</g>
	<path class="st1" d="M119.9,148.9l-50.1-38c-2-1.5-4.5-2.4-7-2.4c-1.8,0-3.6,0.4-5.2,1.2c-4,2-6.4,6-6.4,10.4
		c0,2.7-0.1,65.3-0.1,65.4c0,4.7-3.8,8.5-8.5,8.5c-4.7,0-8.5-3.8-8.5-8.5c0-0.1,0-39.4,0-50.1c5.3-2,8.9-7.2,8.9-13
		c0-7.6-6.2-13.9-13.9-13.9s-13.9,6.2-13.9,13.9c0,5.8,3.5,10.9,8.9,12.9c0,10.7,0,50,0,50.1c0,10.2,8.3,18.4,18.4,18.4
		c10.2,0,18.4-8.3,18.4-18.4c0-0.2,0.1-65.4,0.1-65.4c0-0.6,0.4-1.2,0.9-1.5c0.2-0.1,0.5-0.2,0.8-0.2c0.4,0,0.7,0.1,1,0.3l50.1,37.9
		c0.4,0.3,0.7,0.8,0.7,1.4c0,0.5-0.3,1-0.7,1.4l-25,19c-2.2-1.3-4.7-2-7.3-2c-7.6,0-13.9,6.2-13.9,13.9c0,7.6,6.2,13.9,13.9,13.9
		c7.6,0,13.9-6.2,13.9-13.9c0-1.3-0.2-2.7-0.6-3.9l25-18.9c2.9-2.2,4.6-5.6,4.6-9.3C124.5,154.5,122.8,151.1,119.9,148.9
		 M29.1,127.6c-2.8,0-5-2.3-5-5c0-2.8,2.3-5,5-5s5,2.3,5,5C34.1,125.4,31.9,127.6,29.1,127.6 M81.6,195.3c-2.8,0-5-2.3-5-5
		s2.3-5,5-5c2.8,0,5,2.3,5,5S84.4,195.3,81.6,195.3"/>
</g>
<g>
	<path class="st0" d="M734.4,157.6v-12h29.9v12H734.4z"/>
	<path class="st0" d="M799.9,182.6h-12.5v-59.2h-22.4v-11.5h57.4v11.5h-22.4V182.6z"/>
	<path class="st0" d="M839.1,182.6h-12.3v-53.4h12.3v12c1.7-4,4.1-7.3,7.2-9.7c3.1-2.4,7-3.5,11.7-3.3v12.9h-0.7
		c-2.7,0-5.2,0.4-7.4,1.3c-2.2,0.9-4.1,2.2-5.8,3.9c-1.6,1.8-2.9,4-3.7,6.6c-0.9,2.7-1.3,5.7-1.3,9.2V182.6z"/>
	<path class="st0" d="M898.6,182.6V176c-1.8,2.2-4.1,4-7,5.5c-2.8,1.5-6.3,2.2-10.3,2.2c-2.6,0-5-0.4-7.3-1.1
		c-2.3-0.7-4.3-1.8-6-3.1c-1.7-1.4-3.1-3.1-4.1-5.2c-1-2.1-1.6-4.4-1.6-7.1V167c0-2.9,0.5-5.4,1.6-7.6c1.1-2.2,2.6-3.9,4.5-5.4
		c1.9-1.4,4.2-2.5,6.9-3.2c2.7-0.7,5.5-1.1,8.6-1.1c3.2,0,6,0.2,8.2,0.6c2.3,0.4,4.4,0.9,6.5,1.6v-1.3c0-3.7-1.1-6.5-3.4-8.5
		c-2.3-2-5.5-2.9-9.8-2.9c-3,0-5.7,0.3-8.1,0.9c-2.4,0.6-4.8,1.4-7.2,2.4l-3.3-9.8c3-1.3,6-2.4,9.1-3.2c3.1-0.8,6.8-1.2,11.2-1.2
		c8,0,13.8,2,17.7,5.9c3.8,3.9,5.8,9.5,5.8,16.6v31.6H898.6z M899,159.9c-1.6-0.6-3.4-1.1-5.5-1.5s-4.4-0.6-6.7-0.6
		c-3.8,0-6.8,0.7-9,2.2c-2.2,1.5-3.2,3.6-3.2,6.4v0.2c0,2.6,1,4.5,3,5.9c2,1.3,4.4,2,7.3,2c2,0,3.9-0.3,5.6-0.8
		c1.7-0.5,3.2-1.3,4.5-2.3c1.3-1,2.3-2.2,3-3.5c0.7-1.4,1.1-2.9,1.1-4.6V159.9z"/>
	<path class="st0" d="M923.5,121v-11.6h13.2V121H923.5z M924,182.6v-53.4h12.3v53.4H924z"/>
	<path class="st0" d="M964.6,182.6h-12.3v-53.4h12.3v8.4c0.9-1.3,1.8-2.5,2.9-3.6c1-1.1,2.3-2.1,3.6-3c1.4-0.9,2.9-1.6,4.5-2.1
		c1.6-0.5,3.5-0.8,5.6-0.8c6,0,10.7,1.9,14,5.6c3.3,3.7,4.9,8.7,4.9,15v34h-12.3v-30.3c0-4.2-1-7.4-3-9.6c-2-2.3-4.8-3.4-8.4-3.4
		c-3.5,0-6.4,1.2-8.6,3.5c-2.2,2.3-3.3,5.6-3.3,9.7V182.6z"/>
	<path class="st0" d="M1025.4,170.3c2.8,2.3,6.1,3.5,10.1,3.5c3,0,5.7-0.5,7.9-1.6c2.2-1.1,4.4-2.7,6.6-4.8l7.2,6.4
		c-2.6,3-5.6,5.5-9.1,7.3c-3.5,1.8-7.8,2.7-12.7,2.7c-3.8,0-7.4-0.7-10.8-2s-6.2-3.2-8.7-5.7c-2.5-2.4-4.4-5.3-5.8-8.7
		c-1.4-3.4-2.1-7.2-2.1-11.4c0-3.8,0.6-7.4,1.9-10.8c1.3-3.4,3.1-6.3,5.4-8.8c2.3-2.5,5.1-4.5,8.2-6c3.2-1.5,6.7-2.2,10.5-2.2
		c4.2,0,8,0.8,11.2,2.3c3.2,1.6,5.9,3.6,8,6.3s3.7,5.7,4.8,9.2c1.1,3.5,1.6,7.2,1.6,11c0,0.5,0,1.1-0.1,1.6c0,0.5-0.1,1.1-0.2,1.7
		h-39.2C1020.9,164.6,1022.7,168,1025.4,170.3z M1047.5,152.2c-0.2-2-0.6-3.8-1.3-5.5c-0.7-1.7-1.6-3.2-2.7-4.4
		c-1.1-1.2-2.5-2.2-4.1-3c-1.6-0.7-3.4-1.1-5.4-1.1c-3.8,0-6.9,1.3-9.4,3.9c-2.5,2.6-4,6-4.5,10.2H1047.5z"/>
	<path class="st0" d="M1082.2,182.6h-12.3v-53.4h12.3v12c1.7-4,4.1-7.3,7.2-9.7c3.1-2.4,7-3.5,11.7-3.3v12.9h-0.7
		c-2.7,0-5.2,0.4-7.4,1.3c-2.2,0.9-4.1,2.2-5.8,3.9c-1.6,1.8-2.9,4-3.7,6.6c-0.9,2.7-1.3,5.7-1.3,9.2V182.6z"/>
</g>
<g>
	<path class="st1" d="M104.6,200.2c0,2.1-1.7,3.8-3.8,3.8c-2.1,0-3.8-1.7-3.8-3.8c0-2.1,1.7-3.7,3.8-3.7
		C102.9,196.5,104.6,198.1,104.6,200.2z M97.9,200.2c0,1.7,1.2,3,2.9,3c1.6,0,2.8-1.3,2.8-2.9c0-1.7-1.2-3-2.9-3
		S97.9,198.6,97.9,200.2z M100.2,202.2h-0.9v-3.7c0.3-0.1,0.8-0.1,1.4-0.1c0.7,0,1,0.1,1.3,0.3c0.2,0.2,0.4,0.5,0.4,0.8
		c0,0.4-0.3,0.7-0.8,0.9v0c0.4,0.1,0.6,0.4,0.7,0.9c0.1,0.6,0.2,0.8,0.3,0.9h-0.9c-0.1-0.1-0.2-0.5-0.3-0.9
		c-0.1-0.4-0.3-0.6-0.8-0.6h-0.4V202.2z M100.2,200h0.4c0.5,0,0.9-0.2,0.9-0.5c0-0.3-0.2-0.6-0.8-0.6c-0.2,0-0.4,0-0.5,0V200z"/>
</g>
</svg>
